<svg width="24" height="32" viewBox="0 0 24 32" fill="none" xmlns="http://www.w3.org/2000/svg">
<path d="M0 11.4375C0 5.12073 5.12073 0 11.4375 0H12.4008C18.8069 0 24 5.19312 24 11.5992C24 14.4344 22.9439 17.157 21.1891 19.384C19.9292 20.9829 18.5225 22.8955 17.6 24.5333C16.4344 26.6029 14.8948 29.5222 14.109 31.0238C13.795 31.6237 13.175 32 12.4979 32C11.8585 32 11.2676 31.665 10.9395 31.1163C10.0583 29.6422 8.25291 26.6363 6.93333 24.5333C5.90609 22.8962 4.38992 20.9946 3.03717 19.4025C1.14034 17.1701 0 14.3669 0 11.4375Z" fill="#0E0E0E"/>
<path d="M15.6205 14.6028L15.6198 13.5858C15.6816 13.5462 15.7543 13.5311 15.8366 13.5311C15.9628 13.5311 16.0638 13.5768 16.1396 13.6684C16.2162 13.7605 16.2547 13.8996 16.2547 14.0869C16.2547 14.2756 16.2155 14.4177 16.1375 14.5118C16.0591 14.6064 15.9588 14.6535 15.8366 14.6535C15.7553 14.6535 15.6834 14.6441 15.6205 14.6028ZM16.5383 14.3813V14.9051H16.0656C16.1846 14.8706 16.2867 14.8063 16.3701 14.7128C16.4503 14.6226 16.506 14.5126 16.5383 14.3813ZM15.6194 10.9452L13.8722 13.1083L12.1236 10.9538L12.1261 14.9051H11.2083L11.2051 8.5498H11.3715L13.8762 11.7634L16.3589 8.5498H16.5351L16.538 13.8051C16.5063 13.6728 16.4499 13.562 16.369 13.4725C16.2346 13.323 16.057 13.2482 15.8337 13.2482C15.7568 13.2482 15.686 13.2568 15.6198 13.2733L15.6194 10.9452Z" fill="white"/>
<path d="M9.39041 12.898L10.3057 12.9037H10.3068V12.9044C10.292 12.9645 10.2752 13.0249 10.2561 13.0842C10.2385 13.1435 10.218 13.2025 10.1961 13.26C10.1529 13.3743 10.1022 13.4843 10.0444 13.5896C9.98899 13.6925 9.92607 13.7906 9.85597 13.8841C9.7891 13.9736 9.71828 14.0592 9.64278 14.14C9.56693 14.2209 9.4864 14.2972 9.40156 14.3669C9.32498 14.4305 9.24337 14.4888 9.15925 14.5405C9.07692 14.5912 8.99136 14.6358 8.90256 14.6739C8.81053 14.7135 8.71598 14.748 8.62035 14.7767C8.52436 14.8066 8.42658 14.8307 8.32771 14.8497C8.22525 14.8695 8.12244 14.8842 8.0189 14.8936C7.91248 14.9029 7.80463 14.9065 7.69714 14.9065C7.60475 14.9054 7.51307 14.9004 7.42176 14.8911C7.33044 14.8824 7.23985 14.8684 7.14925 14.8508C7.05974 14.8328 6.97094 14.8112 6.88286 14.7843C6.7937 14.758 6.7067 14.7278 6.62114 14.6926C6.53594 14.6581 6.45109 14.6196 6.36877 14.5776C6.28644 14.5355 6.20663 14.4888 6.12826 14.4395C6.05061 14.3895 5.97475 14.3363 5.90141 14.2795C5.82735 14.222 5.75545 14.1609 5.68715 14.0965C5.61956 14.0336 5.55701 13.9668 5.49733 13.8956C5.43729 13.8233 5.38013 13.7467 5.32764 13.6673C5.27084 13.5796 5.21871 13.4886 5.17126 13.3948C5.12344 13.3002 5.07994 13.2043 5.04183 13.1061C5.00013 13.0015 4.96526 12.8947 4.93434 12.7869C4.90342 12.6751 4.87826 12.5625 4.85885 12.4493C4.83835 12.3299 4.8229 12.2095 4.81391 12.0887C4.80312 11.9625 4.79917 11.836 4.79989 11.7091C4.80097 11.5804 4.80636 11.4506 4.81858 11.3215C4.83009 11.1979 4.84626 11.0749 4.86819 10.9534C4.89012 10.838 4.91637 10.724 4.94872 10.6122C4.98072 10.5033 5.01739 10.3958 5.06053 10.2901C5.10043 10.192 5.14465 10.096 5.19283 10.0021C5.24172 9.90867 5.29529 9.81772 5.35317 9.73C5.40709 9.65091 5.46389 9.57469 5.52609 9.50315C5.58541 9.43269 5.65012 9.36654 5.7177 9.3047C5.78709 9.24179 5.85971 9.18175 5.93377 9.12603C6.00782 9.0703 6.08368 9.01854 6.16205 8.96964C6.24042 8.92147 6.32095 8.87689 6.40256 8.83663C6.48525 8.796 6.56865 8.75897 6.6535 8.7277C6.73978 8.69426 6.82714 8.6655 6.91522 8.64141C7.0033 8.61661 7.09281 8.59612 7.18305 8.58066C7.27436 8.56412 7.36604 8.55226 7.45771 8.54435C7.55154 8.53644 7.64501 8.5332 7.73884 8.5332C7.84166 8.53428 7.9452 8.54003 8.04766 8.55046C8.14796 8.56088 8.24898 8.57634 8.3482 8.59684C8.44599 8.61661 8.54306 8.64141 8.63868 8.67161C8.73323 8.70073 8.82599 8.73489 8.91802 8.77443C9.0061 8.81218 9.0913 8.8564 9.17327 8.90673C9.25739 8.95742 9.33792 9.01494 9.41522 9.07749C9.49934 9.14544 9.57915 9.22022 9.65429 9.29823C9.72942 9.37732 9.80025 9.46145 9.86604 9.54809C9.93542 9.63724 9.99726 9.73287 10.0526 9.83138C10.1083 9.93096 10.158 10.0349 10.1993 10.1431C10.218 10.1912 10.236 10.2401 10.2514 10.2894C10.2676 10.3401 10.2831 10.3908 10.2964 10.4422L10.2974 10.4429H10.2956L9.36704 10.4361H9.36632C9.30269 10.2944 9.2254 10.1639 9.13229 10.0471C9.04241 9.93456 8.93959 9.83389 8.82167 9.74905C8.66026 9.63221 8.4841 9.5524 8.30075 9.50171C8.1174 9.4503 7.92507 9.42765 7.73237 9.42693C7.59216 9.42514 7.45304 9.43736 7.31606 9.46396C7.18736 9.48949 7.0601 9.52831 6.93858 9.5826C6.81563 9.63653 6.70167 9.70447 6.59526 9.78428C6.48705 9.86661 6.38746 9.96116 6.29723 10.0679C6.11316 10.2851 5.98266 10.5299 5.89602 10.7909C5.80147 11.0796 5.75977 11.3888 5.75761 11.7055C5.75581 12.0046 5.79751 12.2904 5.88487 12.5586C5.97044 12.8189 6.09914 13.0633 6.2753 13.2884C6.36338 13.4009 6.46188 13.503 6.56973 13.5925C6.67327 13.6784 6.78687 13.7525 6.90875 13.8125C7.03134 13.8726 7.15752 13.9164 7.2873 13.9456C7.42356 13.9765 7.56269 13.9912 7.70361 13.9919C7.80715 13.9927 7.91069 13.9869 8.01422 13.9732C8.11129 13.9603 8.20836 13.9405 8.30291 13.9121C8.39746 13.8837 8.48949 13.8478 8.57757 13.8039C8.66493 13.7608 8.74869 13.7101 8.82814 13.6518C8.91047 13.5918 8.98525 13.5239 9.05391 13.4494C9.12258 13.3747 9.18441 13.2923 9.23978 13.2039C9.26926 13.1557 9.29586 13.1068 9.32067 13.0561C9.34655 13.0047 9.3692 12.9515 9.39077 12.8972H9.39041V12.898Z" fill="white"/>
<path d="M18.3664 14.9057V13.2832H19.5082V13.5571H18.6792V13.9181H19.4503V14.192H18.6792V14.6321H19.5384V14.906H18.3664V14.9057ZM17.1236 13.9706H17.3544C17.5036 13.9706 17.5963 13.9637 17.6341 13.9501C17.6715 13.9371 17.7009 13.9141 17.7211 13.8814C17.7426 13.8491 17.7531 13.8084 17.7531 13.7595C17.7531 13.7045 17.7394 13.6607 17.7114 13.6273C17.6837 13.5938 17.6449 13.5722 17.5942 13.5636C17.5686 13.5593 17.4931 13.5575 17.3673 13.5575H17.1236V13.9706ZM16.8115 14.9057V13.2832H17.4676C17.6323 13.2832 17.7523 13.2979 17.8271 13.3271C17.9023 13.3562 17.9616 13.408 18.0065 13.4827C18.0515 13.5575 18.0741 13.6423 18.0741 13.7376C18.0741 13.8606 18.04 13.9602 17.972 14.04C17.9044 14.1191 17.8034 14.1687 17.6679 14.1895C17.7347 14.2305 17.7905 14.2762 17.8336 14.3258C17.8775 14.3747 17.9361 14.4635 18.0101 14.5893L18.1985 14.9053H17.826L17.6028 14.5515C17.523 14.4254 17.468 14.3463 17.4381 14.3135C17.4087 14.2808 17.3777 14.2578 17.3443 14.246C17.3109 14.2341 17.2584 14.228 17.1872 14.228H17.1236V14.9057H16.8115Z" fill="white"/>
<path d="M14.206 14.9056V13.5571H13.7487V13.2832H14.9725V13.5571H14.5184V14.9056H14.206ZM15.62 13.2731V13.5855C15.579 13.6078 15.5427 13.6355 15.5096 13.6743C15.4312 13.767 15.3913 13.9073 15.3913 14.0931C15.3913 14.2768 15.4323 14.417 15.5128 14.5123C15.5456 14.5501 15.5815 14.5803 15.6203 14.6025L15.6207 14.9135C15.4837 14.8826 15.3669 14.8157 15.2741 14.7143C15.1386 14.5666 15.071 14.3638 15.071 14.1046C15.071 13.9389 15.0947 13.8005 15.1411 13.688C15.1763 13.6049 15.2242 13.5309 15.2842 13.4647C15.3457 13.3993 15.4115 13.3504 15.4841 13.318C15.5272 13.2997 15.5722 13.2835 15.62 13.2731ZM12.3398 14.38L12.644 14.3484C12.6616 14.4555 12.6986 14.5339 12.7547 14.5835C12.8101 14.6342 12.8852 14.659 12.9798 14.659C13.079 14.659 13.1552 14.6367 13.2055 14.5921C13.2562 14.5475 13.2817 14.495 13.2817 14.4361C13.2817 14.3973 13.271 14.3645 13.2498 14.3376C13.2285 14.3106 13.1912 14.2876 13.1379 14.2678C13.1013 14.2542 13.0193 14.2308 12.8902 14.1967C12.7242 14.1532 12.6073 14.0996 12.5397 14.036C12.4452 13.9457 12.3988 13.8368 12.3988 13.7081C12.3988 13.6258 12.4211 13.5478 12.465 13.4751C12.5099 13.4032 12.5732 13.3489 12.6573 13.3112C12.7403 13.2734 12.8417 13.2544 12.9596 13.2544C13.153 13.2544 13.2979 13.299 13.3954 13.3892C13.4931 13.4794 13.5445 13.5999 13.5492 13.7509L13.2372 13.762C13.2231 13.6779 13.1944 13.6179 13.1512 13.5819C13.1081 13.5449 13.0427 13.5262 12.9557 13.5262C12.8662 13.5262 12.7957 13.546 12.7454 13.5855C12.713 13.6103 12.6958 13.6448 12.6958 13.6869C12.6958 13.7253 12.7116 13.7581 12.7421 13.7854C12.7817 13.8199 12.8766 13.8566 13.0276 13.8947C13.1793 13.9317 13.2907 13.9709 13.3626 14.0115C13.4353 14.0518 13.4921 14.1057 13.533 14.1762C13.5737 14.2459 13.5942 14.3318 13.5942 14.4347C13.5942 14.5274 13.5697 14.614 13.5208 14.6957C13.4716 14.7765 13.4025 14.8373 13.3123 14.8768C13.2228 14.9164 13.111 14.9362 12.9772 14.9362C12.7824 14.9362 12.6325 14.8887 12.5279 14.7938C12.4229 14.6985 12.3603 14.5616 12.3398 14.38Z" fill="white"/>
</svg>
